<?xml version="1.0" standalone="no"?>
<!DOCTYPE svg PUBLIC "-//W3C//DTD SVG 20010904//EN"
 "http://www.w3.org/TR/2001/REC-SVG-20010904/DTD/svg10.dtd">
<svg version="1.0" xmlns="http://www.w3.org/2000/svg"
 width="200.000000pt" height="200.000000pt" viewBox="0 0 200.000000 200.000000"
 preserveAspectRatio="xMidYMid meet">
<metadata>
Created by potrace 1.16, written by Peter Selinger 2001-2019
</metadata>
<g transform="translate(0.000000,200.000000) scale(0.100000,-0.100000)"
fill="#000000" stroke="none">
<path d="M0 1721 c0 -181 4 -281 10 -283 6 -2 11 -31 11 -66 1 -56 3 -62 23
-62 15 0 17 -3 7 -9 -7 -5 -15 -30 -17 -57 -2 -27 -10 -96 -18 -154 -9 -58
-16 -138 -16 -177 l0 -73 34 17 c19 9 34 19 34 22 -4 19 17 64 36 76 l21 15
-22 6 c-27 7 -33 40 -20 100 7 31 17 49 29 52 31 8 36 57 5 57 -7 0 -13 13
-15 29 -2 16 -10 39 -17 50 -16 25 -8 41 20 41 15 0 19 5 16 20 -6 33 -6 113
3 230 4 61 7 121 7 134 -1 32 58 127 89 143 14 7 28 17 31 22 10 14 50 -4 60
-27 5 -12 25 -92 45 -177 42 -181 48 -285 27 -445 -36 -275 -44 -530 -18 -592
17 -40 10 -53 -31 -53 -23 0 -54 -29 -54 -51 0 -8 -20 -42 -44 -77 -43 -62
-70 -125 -100 -234 -11 -37 -26 -64 -44 -80 -22 -19 -62 -91 -62 -113 0 -3
200 -5 445 -5 260 0 445 4 445 9 0 5 29 47 65 93 36 45 80 102 98 126 62 83
89 112 128 134 21 12 39 26 39 30 0 5 5 6 11 2 7 -4 47 -6 89 -5 68 2 86 -2
144 -28 72 -33 89 -61 36 -61 -61 0 -140 -48 -140 -85 0 -8 -19 -23 -42 -34
-121 -53 -192 -81 -204 -81 -14 0 -45 -24 -93 -70 l-25 -25 98 -3 c83 -2 106
1 143 18 33 16 48 18 63 10 11 -6 20 -15 20 -20 0 -6 123 -10 325 -10 l325 0
0 219 0 219 -62 21 c-35 11 -81 23 -103 26 -22 4 -92 22 -155 42 -63 19 -126
39 -140 43 -18 5 -27 16 -31 41 -8 46 -24 82 -42 97 -13 11 -16 8 -22 -16 -6
-29 -28 -46 -75 -56 -44 -9 -54 8 -22 35 58 48 109 144 128 238 15 73 21 87
35 84 9 -3 20 0 23 6 4 7 -1 11 -13 11 -28 0 -32 11 -25 76 6 47 9 54 19 41
16 -23 26 -10 15 19 -12 29 5 42 19 15 6 -11 11 -30 11 -43 0 -18 2 -20 10 -8
5 8 10 39 10 68 0 44 -3 52 -18 52 -11 0 -26 -15 -37 -37 -14 -29 -19 -34 -23
-20 -2 10 4 27 13 37 19 20 21 93 9 240 -4 59 -1 91 15 150 11 41 25 106 31
143 13 81 53 210 63 201 4 -4 7 -19 8 -33 0 -23 1 -24 9 -6 7 18 9 18 15 3 4
-9 13 -14 21 -11 20 8 18 -27 -3 -43 -17 -13 -17 -13 0 -14 11 0 17 -8 17 -24
0 -13 6 -28 13 -34 8 -7 11 -25 9 -48 -3 -24 -7 -32 -13 -23 -5 9 -10 4 -14
-17 -4 -16 -8 -34 -10 -41 -7 -20 13 -25 24 -6 10 17 10 17 11 0 0 -10 -7 -25
-15 -34 -17 -16 -11 -82 8 -94 6 -4 1 -15 -12 -25 -24 -21 -28 -49 -6 -58 10
-3 15 -19 15 -42 l0 -37 25 27 c14 15 25 31 25 37 0 5 5 9 10 9 6 0 10 7 10
15 0 8 -4 15 -10 15 -15 0 -13 143 2 158 9 9 9 15 0 24 -13 13 -17 82 -4 74
23 -14 62 84 43 108 -10 12 23 57 56 75 17 9 24 7 36 -12 l16 -22 0 26 c1 22
17 39 37 39 2 0 4 -16 4 -35 0 -19 4 -35 8 -35 21 0 32 29 32 81 l0 58 -335 1
c-379 0 -341 10 -329 -84 9 -62 24 -59 24 5 0 45 2 50 15 39 8 -7 15 -19 15
-26 0 -8 10 -14 25 -14 14 0 25 5 25 10 0 6 8 5 20 -2 15 -10 19 -20 15 -43
-2 -16 -7 -65 -10 -108 -4 -74 -4 -78 14 -72 29 9 34 -9 26 -87 l-7 -71 -37
40 c-20 22 -48 47 -63 56 -92 57 -101 60 -206 65 -96 4 -103 6 -99 24 6 22
-24 58 -47 58 -22 0 -46 40 -46 76 0 51 24 95 61 113 33 16 29 16 -130 19 -90
1 -166 0 -169 -3 -3 -3 -9 -32 -14 -66 -6 -44 -14 -66 -30 -79 -20 -16 -21
-21 -10 -44 7 -15 12 -37 12 -49 0 -13 6 -31 13 -42 8 -11 16 -29 20 -40 3
-11 17 -51 32 -90 25 -64 40 -194 44 -372 1 -16 7 -23 20 -23 11 0 22 -6 24
-12 6 -15 6 -18 11 117 2 55 0 109 -4 120 -11 29 6 64 36 75 14 6 46 26 70 46
l44 36 128 5 c117 4 131 3 170 -17 35 -19 54 -25 82 -29 3 -1 13 -14 23 -30
16 -27 18 -63 5 -76 -7 -8 5 -59 26 -107 11 -25 17 -70 18 -133 1 -91 0 -96
-26 -120 -34 -32 -38 -31 -64 5 -19 26 -29 30 -67 30 -25 0 -45 5 -45 10 0 13
-47 13 -55 0 -4 -6 -15 -8 -26 -5 -12 4 -19 2 -19 -6 0 -8 -6 -6 -18 4 -25 23
-55 22 -50 0 6 -30 -22 -43 -54 -27 -26 14 -30 13 -54 -11 -24 -24 -26 -31
-20 -78 6 -48 5 -50 -9 -32 -42 55 -45 57 -60 41 -19 -18 -19 -50 -1 -121 14
-53 42 -106 50 -95 2 3 14 -7 26 -23 28 -35 22 -59 -8 -29 l-22 22 -10 -27
c-26 -74 -29 -77 -125 -89 -50 -7 -112 -15 -140 -18 l-50 -5 32 14 c18 9 33
20 33 25 0 6 18 10 39 10 22 0 62 5 90 12 38 9 51 16 51 30 0 12 -7 18 -21 18
-11 0 -18 4 -14 10 3 5 12 7 20 3 11 -4 15 2 15 20 0 14 3 33 7 43 4 11 3 15
-5 10 -7 -4 -13 10 -18 44 -4 27 -10 50 -15 50 -5 0 -9 -4 -9 -10 0 -5 -6 -10
-14 -10 -8 0 -18 -14 -22 -32 -6 -32 -7 -32 -15 -10 -13 34 8 112 28 105 13
-5 14 0 8 27 -4 18 -15 47 -25 63 l-19 30 -14 -34 c-18 -45 -43 -154 -58 -256
-6 -45 -17 -90 -24 -99 -17 -24 -45 -11 -45 21 0 18 -5 25 -19 25 -10 0 -21 7
-25 15 -3 8 -16 15 -30 15 -24 0 -36 16 -36 51 0 13 -7 19 -24 19 -15 0 -26 7
-29 18 -11 39 -7 112 7 153 18 50 20 95 7 103 -16 10 -4 93 18 137 22 41 22
89 2 89 -15 0 -23 74 -12 103 12 31 -5 177 -20 177 -5 0 -9 7 -9 15 0 8 -4 15
-9 15 -11 0 -31 79 -31 124 0 25 -4 36 -15 36 -18 0 -20 26 -2 33 9 3 9 9 0
25 -10 17 -8 23 11 41 12 11 35 23 52 25 16 2 41 7 56 11 24 6 26 4 21 -14 -3
-12 -1 -21 6 -21 6 0 11 7 11 15 0 8 6 15 13 15 7 0 20 11 30 24 17 22 24 24
71 19 48 -5 54 -3 59 16 l5 21 -374 0 -374 0 0 -279z m1283 -728 c9 -2 17 -11
17 -19 0 -12 4 -12 20 -4 16 8 20 8 20 -4 0 -33 -66 -66 -132 -66 -16 0 -28
-4 -28 -10 0 -12 -22 -9 -32 5 -5 6 -8 5 -8 -4 0 -9 -8 -11 -26 -7 -44 11 -25
-25 21 -40 22 -6 33 -12 23 -13 -9 -1 -19 -7 -22 -13 -5 -10 -7 -10 -12 0 -3
6 -14 12 -25 12 -14 0 -19 7 -19 27 0 14 -7 34 -16 44 -25 28 -11 49 33 50 21
1 30 3 20 6 -33 9 -11 28 39 34 68 7 106 8 127 2z"/>
<path d="M1952 1758 c-7 -7 -12 -22 -12 -35 0 -18 -6 -23 -24 -23 -13 0 -27
-7 -30 -16 -5 -13 -1 -15 19 -12 20 4 23 3 14 -8 -6 -8 -9 -24 -6 -36 3 -13 2
-45 -2 -71 -7 -41 -6 -47 7 -42 12 5 12 1 -2 -14 -12 -14 -16 -26 -11 -38 5
-10 7 -22 6 -26 0 -4 6 -10 14 -13 12 -5 14 -15 9 -43 -4 -20 -11 -39 -16 -42
-7 -4 -6 -13 0 -25 6 -12 6 -43 1 -84 -5 -35 -7 -70 -5 -77 7 -17 -21 -95 -37
-105 -9 -6 -9 -8 1 -8 23 0 13 -40 -13 -50 -31 -12 -33 -27 -3 -26 19 1 22 -5
25 -53 2 -33 -2 -63 -10 -75 -17 -27 -22 -181 -7 -191 6 -4 15 -18 21 -32 5
-13 13 -22 17 -19 5 3 22 -8 37 -24 50 -53 55 -44 55 102 0 118 -2 130 -14
112 -8 -11 -16 -42 -18 -69 -2 -30 -8 -50 -17 -53 -11 -4 -12 15 -5 104 4 60
8 120 9 134 1 14 3 27 5 30 1 3 4 140 6 305 2 165 4 323 5 352 1 28 -1 55 -5
61 -3 5 -2 30 3 55 9 51 2 74 -17 55z"/>
<path d="M1265 1385 l-40 -12 3 -49 c2 -27 10 -54 18 -60 7 -6 11 -14 7 -17
-14 -15 71 -39 112 -32 22 4 52 7 67 8 27 0 27 1 23 54 -8 108 -73 145 -190
108z"/>
<path d="M1005 1365 c-22 -8 -48 -24 -57 -36 -20 -23 -25 -85 -7 -74 6 4 8 14
4 24 -5 12 -3 13 5 5 9 -9 9 -17 1 -32 -18 -34 -13 -41 27 -36 33 5 35 4 17
-8 -19 -12 -19 -13 10 -18 45 -9 94 10 122 46 21 28 23 39 17 79 -5 37 -12 48
-31 56 -33 12 -60 11 -108 -6z"/>
</g>
</svg>
